# xmcd
#
# Track frame offsets:
#	150
#	13885
#	27415
#	36025
#	49492
#	67912
#	81050
#	95150
#	112467
#	130905
#	144080
#	156752
#	171767
#	183905
#	197082
#
# Disc length: 2814 seconds
#
# Revision: 1
# Processed by: cddbd v1.5.1PL0 Copyright (c) Steve Scherf et al.
# Submitted via: audiograbber 1.82.02
#
DISCID=d10afc0f
DTITLE=Various Artist - Solid Gold Soul 1969-1970 CD2
DYEAR=1969
DGENRE=Soul
TTITLE0=Smokey Robinson and The Miracles - Tears Of A Clown
TTITLE1=Jackson Five - ABC
TTITLE2=Box Tops - The Letter
TTITLE3=Marvin Gaye and Tammi Terrell - Onion Song
TTITLE4=James Brown - Super Bad
TTITLE5=Dells - Oh What A Night
TTITLE6=The Four Tops and The Supremes - River Deep Mountain High
TTITLE7=Brook Benton - Rainy Night In Georgia
TTITLE8=Temptations - Ball Of Confusion
TTITLE9=Aretha Franklin - Don't Play That Song
TTITLE10=Junior Walker and The All Stars - (I'm A) Road Runner
TTITLE11=Delfonics - Didn't I (Blow Your Mind This Time)
TTITLE12=Chairmen Of The Board - Give Me Just A Little More Time
TTITLE13=Freda Payne - Band Of Gold
TTITLE14=Stevie Wonder - Yester-Me, Yester-You, Yesterday
EXTD=
EXTT0=
EXTT1=
EXTT2=
EXTT3=
EXTT4=
EXTT5=
EXTT6=
EXTT7=
EXTT8=
EXTT9=
EXTT10=
EXTT11=
EXTT12=
EXTT13=
EXTT14=
PLAYORDER=
